<?xml version="1.0" encoding="UTF-8"?><svg id="Layer_1" xmlns="http://www.w3.org/2000/svg" viewBox="0 0 65.28 121.21"><defs><style>.cls-1{fill:#fff;}</style></defs><path class="cls-1" d="M64.86,121.21H26.29c-.02-1.01-.15-2.04-.08-3.06.07-1.17.21-1.44.09-2.69-.16-1.68.05-3.53-.72-5.06-1.16-2.29-2.16-3.92-3.8-5.88-1.79-2.14-2.38-4.71-3.44-7.22-.35-.82-.93-1.71-1.22-2.53-.38-1.07-.72-2.63-.97-3.75-.14-.64-.04-1.22-.12-1.83-.07-.55-.47-1.06-.54-1.57-.18-1.36.59-2.8-.65-3.9-.74-.66-2.7-.43-3.66-.9-.52-.25-.98-1-1.53-1.32-.47-.28-1.08-.38-1.57-.62-.7-.35-3.23-2.18-3.66-2.77-.96-1.31-2.45-3.65-2.97-5.17-.15-.44-.2-.93-.34-1.36-.28-.85-.8-1.3-.92-2.26-.22-1.84-.33-3.42.37-5.17.36-.91,1.13-1.57,1.1-2.56-.05-1.43-.39-2.4.1-3.89s2.29-3.25,3.75-3.65c.72-.2,1.37.13,1.93-.6.47-.61,1.69-3.15,1.99-3.95.71-1.86.34-3.31,1.71-4.88.36-.41,1.71-1.83,2.1-2.05.43-.25,2.27-.77,2.78-.8,1.63-.12,2.57.43,4.03.86,2.81.83,5.69,1.35,8.46,2.36,2.38.87,4.91,2.23,7.33,2.93,1.71.49,2.07.06,2.19-1.63.22-2.86-.73-4.64-.97-7.24-.18-1.86.09-3.35.17-5.12.07-1.58-.18-1.91-.8-3.2-.65-1.36-.87-3.1-1.3-4.56-.22-.74-.74-1.82-.88-2.53-.12-.59-.05-1.32-.12-1.91-.06-.47-.37-.98-.46-1.49-.22-1.27-.1-2.02-.69-3.29-.26-.56-.76-1.14-.99-1.69-.69-1.65-1.08-3.57-1.55-5.29-.37-1.37-.96-2.75-1.02-4.19-.05-1.2.5-3.4,1.3-4.31.62-.71,2.66-1.6,3.58-1.39.78.18,2.41.86,3.01,1.38,1.24,1.08.91,1.6,1.24,2.99.1.43.35.77.46,1.16.13.43.1,1.09.27,1.44s1.08,1.07,1.4,1.53c1.47,2.1,1.83,4.46,2.9,6.62.5,1.01,1.3,1.77,1.7,2.78.76,1.92.8,4.08,1.89,5.93.35.59.84,1.05,1.14,1.71s.27,1.39.54,1.98c.26.56,1.03,1.01,1.24,1.61.19.55.1,1.31.16,1.88.05.45.2.96.24,1.39.07.73-.17,1.57-.07,2.35.05.41.32.9.38,1.33.07.49.02.96.14,1.49.32,1.33.87,1.93,1.44,3.04.48.94,1.1,2.55,1.41,3.55.19.63.1,1.46.22,2.14s.41,1.68.6,2.33c.25.84.78,1.5,1.06,2.28.19.54.23,1.13.46,1.66.18.42.55.8.75,1.2.61,1.24.64,2.06.78,3.37.07.65.4,1.4.47,2.05.04.38-.07.71-.05,1.03.03.59.3,2.11.41,2.77.1.59.49,1.32.66,1.95.26.97.27,1.75.39,2.71.1.8.61,1.33.83,2.02.35,1.11.36,2.26.23,3.37-.08.66.17,1.45.16,2.11,0,.73-.35,1.64-.34,2.36.02.99.72,1.68.47,2.66-.07.29-.29.63-.37.93-.28,1.05-.08,3.65.26,4.69.13.41.41.8.53,1.18.39,1.22.26,2.93.45,4.27.07.47.26.92.3,1.41.09,1.1.06,3.2.62,4.18.07.13.22.2.3.36.29.59.08,1.42.15,2.04.08.65.44,1.47.54,2.23.11.84.07,1.66.2,2.49.11.72.38,1.44.52,2.17.27,1.34.27,2.55.51,3.89.17.96-.11,1.48-.07,2.26.03.55.45,1.21.5,1.71.05.63-.19.95-.25,1.47s-.04,1.56,0,2.12c.04.61.27,1.25.25,1.87s-.36,1.15-.41,1.75Z"/></svg>